<svg width="22" height="24" viewBox="0 0 22 24" fill="none" xmlns="http://www.w3.org/2000/svg">
<path fill-rule="evenodd" clip-rule="evenodd" d="M6.55239 0.0554909C5.06448 0.359257 3.90557 1.46562 3.52022 2.95011C3.45947 3.18411 3.43887 3.56261 3.42194 4.75563C3.39675 6.52901 3.41593 6.65666 3.75981 7.00049C4.29833 7.53906 5.17186 7.40873 5.54553 6.73411L5.68449 6.48322L5.70794 4.93507C5.73107 3.40972 5.73309 3.38345 5.84648 3.15235C6.00547 2.82818 6.35282 2.50255 6.68084 2.37011L6.95116 2.26099H12.4166H17.882L18.1635 2.3924C18.5292 2.56307 18.8041 2.83648 18.9692 3.19378L19.1018 3.48075V11.9956V20.5104L18.9704 20.7919C18.7997 21.1576 18.5263 21.4324 18.169 21.5975L17.882 21.7301H12.4166H6.95116L6.68084 21.621C6.35282 21.4886 6.00547 21.163 5.84648 20.8388C5.73211 20.6057 5.73126 20.5933 5.70794 18.8684L5.68449 17.1326L5.53938 16.8746C5.16464 16.2082 4.30063 16.0844 3.76474 16.6203C3.40932 16.9757 3.39764 17.0583 3.4218 19.0466C3.43845 20.4179 3.45722 20.8015 3.51914 21.0384C3.92448 22.5889 5.15206 23.715 6.70143 23.9575C6.94975 23.9964 8.5928 24.007 12.6277 23.9958L18.2104 23.9804L18.5623 23.8724C18.7558 23.813 19.1041 23.6657 19.3363 23.545C19.6774 23.3678 19.8496 23.2354 20.2321 22.8563C20.656 22.4361 20.7309 22.3354 20.9474 21.8943C21.3947 20.983 21.3517 21.9845 21.366 12.1598C21.3797 2.70184 21.3908 3.13227 21.1156 2.44443C20.8972 1.89845 20.6779 1.57549 20.209 1.10973C19.8454 0.748452 19.6768 0.620143 19.3345 0.444123C19.1013 0.324212 18.753 0.177607 18.5604 0.118402L18.2104 0.0106885L12.5339 0.00196251C7.97415 -0.00507453 6.79733 0.00548098 6.55239 0.0554909ZM10.6339 6.9297C10.3699 7.05294 10.1845 7.22638 10.0581 7.46841C9.92684 7.71986 9.92318 8.19543 10.0506 8.43947C10.1005 8.53494 10.6207 9.10757 11.2066 9.712C11.7926 10.3164 12.2588 10.8241 12.2427 10.8403C12.2265 10.8564 9.69931 10.8701 6.62665 10.8707C1.31758 10.8717 1.03066 10.876 0.851354 10.9574C0.121331 11.2891 -0.0567064 12.2286 0.504146 12.7895C0.591311 12.8767 0.747581 12.9866 0.851354 13.0337C1.03066 13.1152 1.31758 13.1195 6.62665 13.1205C9.69931 13.121 12.2276 13.1358 12.245 13.1533C12.2625 13.1707 11.7951 13.6721 11.2063 14.2675C10.575 14.9058 10.0984 15.4269 10.0447 15.5375C9.91713 15.8004 9.9237 16.2697 10.0586 16.5272C10.3601 17.1027 11.0895 17.3211 11.633 16.9984C11.7415 16.9341 12.7829 15.9246 13.9473 14.7552C15.9298 12.7642 16.0697 12.6128 16.1464 12.3762C16.2518 12.0513 16.2185 11.6873 16.0588 11.4187C15.9062 11.162 11.7862 7.05763 11.5743 6.95109C11.3169 6.82175 10.8861 6.81194 10.6339 6.9297Z" fill="white"/>
</svg>
